<?xml version="1.0" encoding="utf-8"?>
<!-- Generator: Adobe Illustrator 24.2.0, SVG Export Plug-In . SVG Version: 6.00 Build 0)  -->
<svg version="1.1" id="圖層_1" xmlns="http://www.w3.org/2000/svg" xmlns:xlink="http://www.w3.org/1999/xlink" x="0px" y="0px"
	 viewBox="0 0 1191.54 1000" style="enable-background:new 0 0 1191.54 1000;" xml:space="preserve">
<style type="text/css">
	.st0{display:none;}
	.st1{fill:#1178B8;}
	.st2{fill:#FECC2F;}
</style>
<g id="Layer_2" class="st0">
</g>
<g id="Layer_1" class="st0">
</g>
<g id="Layer_3">
	<g>
		<path class="st1" d="M692.86,627.86C665.86,642.01,635.1,650,602.5,650c-1.33,0-2.68-0.03-3.98-0.05
			c38.06-61.09,101.57-212.15-57.32-380.38c9.96-3.3,20.29-5.8,30.88-7.47c41.34,32.96,108.94,101.63,133.16,211.89
			c0,0,43.76-75.35,7.94-179.84c16.24,11.21,30.7,24.82,42.88,40.3C769.02,416.28,772.17,529.74,692.86,627.86z"/>
		<path class="st2" d="M617.65,528.13c-2.34,28.62-16.73,59.74-16.73,59.74s-145.23-35.54-191.96-157.88
			c2.76-21.7,9.08-42.31,18.39-61.19c8.82,35.88,36.32,102.93,120.23,121.89c0,0,28.7-95.8-55.37-196.82
			c7.83-5.39,16.08-10.2,24.69-14.41C557.21,317.23,628,402.41,617.65,528.13z"/>
		<path class="st1" d="M595.35,606.99l-22.19,40.82C488,634.96,420.9,567.08,409.22,481.56C433.62,514.39,495,583.11,595.35,606.99z
			"/>
		
			<ellipse transform="matrix(0.9951 -0.0985 0.0985 0.9951 -37.6804 51.311)" class="st2" cx="500.62" cy="407.12" rx="31.09" ry="31.09"/>
		<ellipse class="st2" cx="682.66" cy="323.73" rx="25.11" ry="25.11"/>
		<path class="st2" d="M739.8,593.54c45.77-83.13,45.38-173.54,41.81-216.31c10.33,23.78,16.05,50.03,16.05,77.61
			C797.66,509.11,775.52,558.18,739.8,593.54z"/>
		<path class="st1" d="M682.69,278.65c1.4,0,2.78,0.08,4.16,0.21c0.03,0,0.08,0,0.1,0c-23.88-10.43-56.67-19.12-84.43-19.12
			c-1.54,0-3.07,0.03-4.61,0.05l44.7,43.4C650.06,288.64,665.23,278.65,682.69,278.65z"/>
		<path class="st1" d="M500.62,356.1c2.29,0,4.55,0.16,6.76,0.47c-3.56-16.99-19.64-38.87-29.89-51.52
			c-14.8,12.36-27.76,26.88-38.35,43.09c5.05,19.93,11.79,36.09,13.82,40.8C460.29,369.76,478.89,356.1,500.62,356.1z"/>
	</g>
</g>
</svg>
