<?xml version="1.0" standalone="no"?>
<!DOCTYPE svg PUBLIC "-//W3C//DTD SVG 20010904//EN"
 "http://www.w3.org/TR/2001/REC-SVG-20010904/DTD/svg10.dtd">
<svg version="1.0" xmlns="http://www.w3.org/2000/svg"
 width="1192.000000pt" height="1192.000000pt" viewBox="0 0 1192.000000 1192.000000"
 preserveAspectRatio="xMidYMid meet">
<metadata>
Created by potrace 1.11, written by Peter Selinger 2001-2013
</metadata>
<g transform="translate(0.000000,1192.000000) scale(0.100000,-0.100000)"
fill="#000000" stroke="none">
<path d="M6017 8362 c-27 -3 -26 -6 52 -80 44 -42 143 -139 221 -215 l142
-137 25 37 c37 56 82 101 137 136 27 18 51 32 55 33 3 0 31 8 61 17 30 9 76
18 103 19 26 0 47 3 47 5 0 3 -45 22 -65 27 -5 2 -17 6 -25 9 -56 24 -150 54
-154 49 -3 -3 -6 -1 -6 4 0 5 -8 10 -18 11 -9 1 -53 11 -97 22 -79 20 -124 29
-177 36 -15 2 -35 6 -45 9 -16 4 -117 14 -198 19 -16 1 -43 1 -58 -1z"/>
<path d="M5665 8328 c-27 -5 -59 -11 -70 -13 -11 -2 -21 -4 -22 -5 -2 -2 -6
-3 -10 -4 -5 -2 -28 -8 -53 -15 -25 -7 -49 -14 -55 -15 -33 -5 -31 -19 11 -61
24 -25 44 -48 44 -50 0 -3 13 -17 28 -32 87 -84 376 -473 453 -610 10 -18 28
-49 39 -68 11 -19 30 -52 41 -72 29 -51 119 -231 119 -238 0 -7 38 -93 56
-127 9 -16 12 -28 8 -28 -3 0 -1 -7 6 -15 7 -8 9 -15 5 -15 -4 0 -3 -6 2 -12
9 -11 50 -128 57 -161 2 -7 6 -19 10 -28 4 -9 9 -29 11 -45 2 -16 4 -30 6 -31
1 -2 3 -7 4 -13 1 -5 4 -12 5 -15 1 -3 4 -9 5 -15 1 -5 4 -11 5 -12 1 -2 3
-14 4 -28 2 -14 6 -34 9 -45 3 -11 9 -33 12 -50 2 -16 7 -41 10 -54 7 -38 19
-134 20 -163 0 -16 2 -28 5 -28 8 0 11 -102 11 -367 0 -18 0 -39 0 -45 0 -40
-23 -235 -36 -308 -4 -19 -7 -44 -9 -55 -1 -11 -5 -26 -9 -32 -5 -7 -6 -13 -4
-13 3 0 1 -17 -4 -37 -9 -37 -13 -53 -25 -103 -9 -42 -12 -55 -14 -57 -2 -2
-4 -7 -5 -13 -1 -5 -3 -11 -5 -12 -1 -2 -3 -11 -5 -21 -5 -29 -76 -226 -91
-255 -8 -15 -14 -31 -14 -36 0 -17 -117 -258 -159 -326 -11 -19 -26 -47 -32
-62 -6 -16 -15 -28 -19 -28 -4 0 -10 -7 -14 -15 -4 -12 13 -14 122 -10 70 3
141 7 157 9 135 20 150 23 193 35 18 5 35 10 37 10 3 1 6 1 8 2 1 0 10 2 19 4
79 15 328 112 385 150 18 12 55 53 83 91 28 38 56 76 63 84 7 8 28 40 47 70
19 30 37 57 40 60 3 3 11 15 18 28 6 12 18 32 25 45 6 12 14 24 17 27 3 3 12
19 20 35 8 17 29 56 47 87 17 31 29 59 25 62 -3 3 0 6 6 6 7 0 12 5 12 11 0 9
7 26 66 156 13 29 37 94 55 145 17 51 34 100 37 108 3 8 6 17 7 20 0 3 10 37
22 75 18 57 34 125 38 155 0 3 4 11 8 18 5 6 6 12 3 12 -2 0 2 27 10 60 8 33
13 64 13 68 -1 4 0 9 1 12 3 8 8 41 15 85 3 22 7 51 10 65 11 62 26 258 29
375 1 39 5 76 9 83 5 6 4 12 -1 12 -8 0 -9 44 -2 75 1 6 1 12 0 15 -1 3 -3 52
-5 110 -6 150 -11 216 -19 228 -3 6 -2 13 4 17 6 4 7 11 4 17 -4 6 -9 34 -11
62 -7 81 -11 121 -13 121 -2 0 -12 101 -13 133 -1 12 -3 22 -6 22 -4 0 -7 18
-8 41 -2 29 -12 53 -35 82 -43 54 -201 213 -257 257 -24 19 -49 40 -55 45 -20
18 -75 55 -80 55 -3 0 -1 -11 4 -24 5 -13 6 -27 3 -30 -4 -3 -1 -6 5 -6 7 0
11 -3 10 -7 -1 -8 10 -58 19 -83 3 -8 7 -22 9 -30 1 -8 10 -46 18 -85 26 -115
26 -115 41 -215 2 -14 4 -25 5 -25 2 0 11 -116 14 -196 2 -48 6 -91 9 -96 4
-6 3 -13 0 -17 -10 -10 -11 -46 -1 -46 5 0 6 -5 3 -11 -4 -6 -9 -41 -10 -77
-2 -37 -7 -92 -10 -122 -4 -30 -9 -68 -10 -85 -5 -39 -14 -89 -26 -145 -6 -25
-12 -53 -15 -64 -7 -36 -35 -131 -49 -167 -8 -20 -11 -39 -8 -43 4 -3 1 -6 -5
-6 -7 0 -11 -3 -10 -7 3 -8 -17 -66 -33 -95 -5 -10 -9 -25 -9 -33 0 -8 -4 -15
-9 -15 -5 0 -12 -11 -15 -25 -7 -29 -26 -24 -26 6 0 11 -6 41 -14 67 -8 26
-33 108 -56 182 -22 74 -42 142 -45 150 -2 8 -11 33 -21 55 -10 22 -19 45 -20
50 -1 6 -10 28 -19 50 -22 52 -38 89 -40 95 -1 3 -15 32 -30 65 -16 33 -29 62
-30 65 0 3 -6 14 -12 25 -6 11 -27 51 -47 88 -37 71 -147 258 -156 267 -3 3
-32 45 -65 95 -33 49 -70 101 -82 115 -13 14 -23 28 -23 32 0 3 -6 13 -13 20
-6 7 -43 51 -81 97 -116 141 -309 341 -427 442 -106 91 -141 119 -147 118 -4
-1 -29 -6 -57 -11z"/>
<path d="M5125 8140 c-43 -22 -125 -71 -162 -96 -31 -21 -31 -22 -15 -45 8
-13 19 -26 22 -29 27 -22 200 -273 200 -290 0 -5 5 -10 10 -10 6 0 10 -4 10
-9 0 -6 17 -38 37 -73 21 -35 38 -65 38 -68 1 -3 15 -32 31 -65 17 -33 41 -87
54 -120 13 -33 27 -65 31 -71 5 -6 10 -19 12 -30 2 -10 7 -26 10 -34 3 -8 7
-24 9 -35 2 -11 6 -22 10 -25 4 -3 9 -17 12 -30 3 -14 12 -50 20 -80 8 -30 17
-66 20 -80 3 -14 11 -47 16 -75 20 -92 30 -183 33 -292 1 -46 6 -83 10 -83 5
0 6 -4 3 -9 -3 -4 -7 -54 -8 -110 -2 -55 -5 -101 -8 -101 -3 0 -6 -19 -6 -42
-3 -86 -29 -192 -45 -183 -5 4 -18 8 -29 11 -47 10 -59 13 -135 39 -148 49
-347 156 -465 250 -42 35 -194 188 -231 235 -84 105 -228 356 -241 420 -2 8
-5 17 -9 20 -3 3 -18 46 -34 95 -32 96 -32 97 -34 120 -2 24 -18 17 -25 -10
-4 -14 -11 -25 -17 -25 -6 0 -8 -3 -6 -8 3 -4 -3 -25 -14 -46 -10 -22 -19 -44
-19 -50 0 -6 -6 -23 -14 -37 -11 -22 -17 -40 -32 -99 -2 -8 -12 -49 -23 -90
-11 -41 -26 -108 -32 -147 -14 -84 -15 -79 73 -258 55 -112 72 -143 91 -169 4
-6 23 -36 43 -66 35 -52 108 -152 129 -176 6 -7 30 -35 55 -64 38 -44 137
-143 224 -225 18 -18 134 -113 161 -133 6 -4 36 -26 67 -49 31 -24 62 -43 68
-43 5 0 10 -4 10 -8 0 -4 27 -24 60 -43 33 -18 60 -37 60 -41 0 -5 4 -8 9 -8
5 0 48 -23 96 -50 104 -60 277 -146 288 -142 4 1 7 -2 7 -8 0 -6 3 -9 8 -8 4
2 32 -8 62 -22 30 -13 57 -24 60 -25 6 0 65 -23 95 -36 51 -21 194 -67 220
-71 17 -1 30 2 31 7 1 10 16 51 33 90 12 26 23 57 26 70 1 6 10 31 18 57 26
75 65 238 73 298 3 30 8 69 10 85 6 45 6 392 0 455 -10 100 -18 175 -22 195
-3 11 -7 36 -10 55 -7 53 -44 218 -60 275 -8 28 -14 50 -14 50 2 0 -7 27 -16
50 -4 11 -8 25 -9 31 -2 7 -18 52 -36 100 -18 49 -32 95 -32 102 0 6 -4 12 -8
12 -7 0 -24 49 -21 63 1 4 -3 7 -8 7 -6 0 -10 4 -10 9 0 23 -128 271 -186 358
-19 29 -34 55 -34 58 0 3 -4 11 -10 18 -5 7 -47 64 -92 128 -98 137 -176 233
-278 340 -25 26 -60 63 -78 83 -18 20 -37 36 -42 36 -6 0 -10 7 -10 15 0 8 -3
16 -7 16 -32 6 -52 3 -78 -11z"/>
<path d="M6787 7968 c-118 -25 -195 -113 -201 -230 -12 -236 269 -355 433
-184 19 20 31 36 25 36 -5 0 -3 4 4 9 7 4 15 14 16 22 2 8 6 22 11 32 13 32
11 101 -5 150 -40 116 -167 190 -283 165z"/>
<path d="M4729 7862 c-105 -95 -206 -207 -286 -319 l-44 -62 21 -78 c32 -117
108 -323 119 -323 3 1 17 24 31 52 14 29 43 72 65 96 38 42 144 122 162 122 4
0 20 7 35 14 40 21 82 28 170 30 l76 1 -5 30 c-3 17 -10 36 -16 43 -5 6 -6 12
-2 12 4 0 2 7 -5 15 -7 8 -9 15 -6 15 4 0 -2 13 -13 29 -12 16 -21 34 -21 39
0 13 -162 255 -199 298 l-30 34 -52 -48z"/>
<path d="M4912 7183 c-39 -12 -67 -30 -112 -74 -33 -32 -60 -65 -60 -74 0 -8
-4 -15 -10 -15 -5 0 -9 -3 -9 -7 1 -5 0 -10 -1 -13 -12 -32 -21 -159 -11 -175
3 -5 6 -16 7 -23 5 -28 46 -100 76 -131 56 -57 154 -97 228 -92 49 3 130 23
130 33 0 4 5 8 12 8 21 0 80 53 109 99 30 47 51 107 53 151 2 29 -11 108 -21
130 -3 8 -7 21 -9 29 -3 15 -34 51 -78 93 -70 66 -200 92 -304 61z"/>
<path d="M7828 7143 c-2 -10 -1 -40 2 -68 11 -109 3 -509 -14 -662 -3 -21 -7
-65 -11 -98 -3 -33 -10 -85 -15 -115 -18 -108 -19 -109 -35 -190 -2 -14 -6
-36 -9 -50 -2 -14 -12 -54 -21 -90 -9 -36 -19 -73 -21 -84 -5 -26 -34 -128
-41 -146 -3 -8 -7 -19 -8 -25 -5 -20 -44 -132 -70 -200 -31 -81 -37 -96 -101
-230 -81 -170 -78 -163 -57 -140 70 74 194 231 238 299 47 74 165 293 165 307
0 4 8 24 17 45 9 22 17 41 18 44 1 3 4 12 8 20 17 44 64 219 73 275 3 17 8 41
10 55 29 143 33 440 9 590 -2 14 -7 45 -10 70 -13 86 -101 390 -119 407 -2 3
-6 -4 -8 -14z"/>
<path d="M4105 6104 c13 -72 54 -238 75 -303 59 -184 185 -424 294 -562 12
-15 32 -42 46 -60 33 -43 235 -247 278 -279 19 -14 39 -30 45 -35 7 -6 28 -22
47 -35 19 -13 37 -27 40 -30 25 -28 334 -190 364 -190 9 0 16 -4 16 -9 0 -5
15 -13 33 -16 17 -4 38 -12 46 -19 8 -6 15 -10 15 -8 1 2 8 1 16 -1 8 -3 35
-10 60 -17 25 -7 52 -15 60 -18 8 -3 24 -6 35 -7 11 0 25 -4 31 -8 6 -3 33 -9
60 -12 26 -4 51 -8 54 -10 15 -9 21 -1 130 200 18 33 37 66 43 73 5 6 6 12 2
12 -5 0 -1 8 7 18 14 15 58 95 58 104 0 2 -8 5 -17 6 -22 2 -58 10 -58 12 0 1
-9 3 -19 5 -20 4 -111 32 -136 42 -8 3 -24 8 -35 10 -11 1 -29 7 -40 12 -11 5
-62 25 -113 45 -110 43 -246 107 -250 118 -2 4 -9 8 -16 8 -7 0 -44 17 -82 38
-38 22 -85 47 -104 58 -19 10 -37 21 -40 24 -7 7 -208 142 -233 157 -11 6 -22
15 -26 20 -3 4 -40 35 -81 68 -41 32 -83 68 -92 79 -10 10 -18 17 -18 14 0 -3
-31 24 -69 61 -38 36 -77 73 -88 82 -42 37 -214 230 -297 333 l-48 60 7 -40z"/>
</g>
</svg>
