<svg id="Layer_3" data-name="Layer 3" xmlns="http://www.w3.org/2000/svg" viewBox="0 0 706.45 150"><defs><style>.cls-1{fill:#1178b8;}.cls-2{fill:#fecc2f;}</style></defs><path class="cls-1" d="M194.29,496.21a74.57,74.57,0,0,1-34.72,8.51l-1.54,0c14.63-23.48,39-81.54-22-146.2a73.14,73.14,0,0,1,11.87-2.87c15.89,12.67,41.87,39.06,51.18,81.44,0,0,16.82-29,3-69.13a75.39,75.39,0,0,1,16.49,15.5C223.56,414.89,224.77,458.5,194.29,496.21Z" transform="translate(-85.17 -354.72)"/><path class="cls-2" d="M165.38,457.88c-.9,11-6.43,23-6.43,23s-55.82-13.65-73.78-60.68a74.55,74.55,0,0,1,7.06-23.52c3.39,13.79,14,39.57,46.21,46.86,0,0,11-36.82-21.28-75.65a74.66,74.66,0,0,1,9.49-5.54C142.15,376.82,169.36,409.56,165.38,457.88Z" transform="translate(-85.17 -354.72)"/><path class="cls-1" d="M156.81,488.19l-8.53,15.69a75.06,75.06,0,0,1-63-63.9C94.65,452.6,118.24,479,156.81,488.19Z" transform="translate(-85.17 -354.72)"/><circle class="cls-2" cx="35.23" cy="56.65" r="11.95"/><circle class="cls-2" cx="190.38" cy="379.3" r="9.65" transform="translate(-288.78 -133.18) rotate(-41.53)"/><path class="cls-2" d="M212.33,483c17.59-31.94,17.43-66.7,16.07-83.13A75.06,75.06,0,0,1,212.33,483Z" transform="translate(-85.17 -354.72)"/><path class="cls-1" d="M190.38,362c.54,0,1.07,0,1.6.08h0c-9.18-4-21.78-7.35-32.44-7.35l-1.77,0L175,371.43A17.32,17.32,0,0,1,190.38,362Z" transform="translate(-85.17 -354.72)"/><path class="cls-1" d="M120.4,391.76a20.27,20.27,0,0,1,2.6.18c-1.37-6.54-7.55-14.94-11.49-19.8A75.08,75.08,0,0,0,96.77,388.7a108.84,108.84,0,0,0,5.31,15.68A19.64,19.64,0,0,1,120.4,391.76Z" transform="translate(-85.17 -354.72)"/><path class="cls-1" d="M602.21,477.59H571.88V381.85h67.37v20.76h-37v18.27h34.15v20.76H602.21Z" transform="translate(-85.17 -354.72)"/><path class="cls-1" d="M658,477.59V381.85h31v95.74Z" transform="translate(-85.17 -354.72)"/><path class="cls-1" d="M763.86,477.59h-30.8V403H705.22V381.85h86.4V403H763.86Z" transform="translate(-85.17 -354.72)"/><polygon class="cls-2" points="246.62 82.22 236.41 54.59 217.23 54.59 207.12 81.99 200.06 26.66 177.87 26.66 192.7 123.34 212.06 123.34 226.83 83.41 241.66 123.34 260.7 123.34 275.87 26.66 253.82 26.66 246.62 82.22"/><path class="cls-2" d="M405.06,379.72c-13.46,0-23.93,4.5-31.14,13.38-7,8.58-10.49,20.91-10.49,36.65S367,457.82,374,466.38c7.23,8.85,17.69,13.34,31.09,13.34s24-4.5,31.22-13.38c7-8.58,10.49-20.89,10.49-36.59s-3.54-28.13-10.53-36.69C429,384.21,418.52,379.72,405.06,379.72Zm-18.75,50c0-10.67,1.78-18.85,5.27-24.29,3.14-4.9,7.42-7.18,13.48-7.18,8.08,0,18.83,3.26,18.83,31.47s-10.75,31.41-18.83,31.41c-6.12,0-10.42-2.25-13.53-7.07C388.07,448.74,386.31,440.54,386.31,429.75Z" transform="translate(-85.17 -354.72)"/><polygon class="cls-2" points="440.27 26.66 433.07 82.22 422.87 54.59 403.68 54.59 393.57 81.99 386.51 26.66 364.32 26.66 379.16 123.34 398.51 123.34 413.28 83.41 428.11 123.34 447.15 123.34 462.32 26.66 440.27 26.66"/></svg>